<svg xmlns="http://www.w3.org/2000/svg" viewBox="0 0 220 48">
  <defs>
    <linearGradient id="bg" x1="0%" y1="0%" x2="100%" y2="100%">
      <stop offset="0%" style="stop-color:#1E5AA8"/>
      <stop offset="100%" style="stop-color:#2B7FD4"/>
    </linearGradient>
    <linearGradient id="ac" x1="0%" y1="0%" x2="100%" y2="0%">
      <stop offset="0%" style="stop-color:#00B3A6"/>
      <stop offset="100%" style="stop-color:#2EC4B6"/>
    </linearGradient>
  </defs>
  <rect x="2" y="2" width="44" height="44" rx="10" fill="url(#bg)"/>
  <path d="M 8 16 L 8 8 L 16 8" fill="none" stroke="#fff" stroke-opacity="0.25" stroke-width="1.5" stroke-linecap="round"/>
  <path d="M 40 16 L 40 8 L 32 8" fill="none" stroke="#fff" stroke-opacity="0.25" stroke-width="1.5" stroke-linecap="round"/>
  <path d="M 8 32 L 8 40 L 16 40" fill="none" stroke="#fff" stroke-opacity="0.25" stroke-width="1.5" stroke-linecap="round"/>
  <path d="M 40 32 L 40 40 L 32 40" fill="none" stroke="#fff" stroke-opacity="0.25" stroke-width="1.5" stroke-linecap="round"/>
  <circle cx="24" cy="24" r="4.5" fill="url(#ac)"/>
  <circle cx="12" cy="14" r="1.4" fill="#fff" opacity="0.55"/>
  <circle cx="36" cy="14" r="1.4" fill="#fff" opacity="0.55"/>
  <circle cx="12" cy="34" r="1.4" fill="#fff" opacity="0.55"/>
  <circle cx="36" cy="34" r="1.4" fill="#fff" opacity="0.55"/>
  <line x1="14" y1="14" x2="20.5" y2="22" stroke="#fff" stroke-width="0.8" opacity="0.35"/>
  <line x1="34" y1="14" x2="27.5" y2="22" stroke="#fff" stroke-width="0.8" opacity="0.35"/>
  <line x1="14" y1="34" x2="20.5" y2="26" stroke="#fff" stroke-width="0.8" opacity="0.35"/>
  <line x1="34" y1="34" x2="27.5" y2="26" stroke="#fff" stroke-width="0.8" opacity="0.35"/>
  <text x="24" y="44" text-anchor="middle" font-family="Arial,sans-serif" font-size="7" font-weight="700" letter-spacing="2.2" fill="#fff">FDE</text>
  <text x="56" y="22" font-family="PingFang SC,Microsoft YaHei,sans-serif" font-size="19" font-weight="700" fill="#0F2540" letter-spacing="1">艾富迪易</text>
  <text x="56" y="40" font-family="Arial,sans-serif" font-size="10" font-weight="500" fill="#5A7A9A" letter-spacing="3.5">AI FDE TECH</text>
  <rect x="56" y="43.5" width="34" height="2" rx="1" fill="url(#ac)"/>
</svg>
